<svg width="443" height="137" viewBox="0 0 443 137" fill="none" xmlns="http://www.w3.org/2000/svg">
<path d="M10.9938 136.968H9.25628C3.08542 136.968 0 136.488 0 135.529C0 134.975 0.515995 134.367 1.54798 133.706C2.60103 133.045 3.2855 132.139 3.60142 130.988C3.93839 129.815 4.10688 126.522 4.10688 121.107C4.10688 115.692 3.94892 112.611 3.63301 111.865C3.33816 111.119 2.78004 110.468 1.95866 109.914C1.13729 109.338 0.726601 108.827 0.726601 108.379C0.726601 107.91 1.18994 107.089 2.11662 105.917C3.06437 104.723 3.72778 103.294 4.10688 101.632C5.07568 97.4957 6.41305 94.4897 8.11899 92.6136C10.2883 90.2045 13.3316 89 17.2489 89C19.1444 89 20.6608 89.3411 21.7981 90.0233C22.9354 90.6842 23.504 91.5476 23.504 92.6136C23.504 93.6795 23.2197 94.4684 22.651 94.98C22.1035 95.4917 21.5137 95.7475 20.8819 95.7475C20.2712 95.7475 19.2602 95.3638 17.8491 94.5963C16.4591 93.8288 15.4061 93.445 14.69 93.445C13.5317 93.445 12.6366 94.1805 12.0047 95.6516C11.394 97.1013 11.0886 98.7002 11.0886 100.448C11.0886 102.197 11.4466 103.476 12.1627 104.286C12.4154 104.563 13.3526 105.128 14.9743 105.981C16.596 106.812 17.4069 107.548 17.4069 108.187C17.4069 108.678 16.575 109.179 14.9111 109.69C13.2473 110.181 12.2153 110.724 11.8152 111.321C11.1412 112.323 10.8043 115.564 10.8043 121.043C10.8043 126.5 10.9938 129.783 11.3729 130.892C11.7731 132.001 12.5418 132.971 13.6791 133.802C14.8164 134.634 15.385 135.273 15.385 135.721C15.385 136.552 13.9213 136.968 10.9938 136.968Z" fill="#2D3030"/>
<path d="M39.1456 115.446V114.455C39.1456 112.877 38.5874 111.46 37.4712 110.202C36.355 108.923 34.986 108.283 33.3643 108.283H32.7641C32.4692 108.326 32.2692 108.347 32.1638 108.347C30.6896 108.347 29.289 109.2 27.9622 110.905C26.6564 112.611 26.0035 114.434 26.0035 116.374V116.789C26.0035 117.472 26.4037 117.813 27.204 117.813C27.5199 117.877 27.6884 117.909 27.7095 117.909L28.4361 117.941H28.6256L28.8467 117.909L34.9439 117.557L36.0812 117.429C38.1241 117.429 39.1456 116.768 39.1456 115.446ZM26.0035 123.921C26.0035 126.351 26.9091 128.387 28.7204 130.029C30.5316 131.67 32.8273 132.491 35.6073 132.491C36.7235 132.491 37.7345 132.331 38.6401 132.011C39.5668 131.67 40.5672 131.265 41.6413 130.796C42.7364 130.327 43.4209 130.093 43.6947 130.093C44.5372 130.093 44.9584 130.551 44.9584 131.468C44.9584 132.704 43.3999 134.026 40.2828 135.433C38.261 136.35 36.0917 136.808 33.775 136.808H33.08C29.1205 136.808 25.835 135.593 23.2235 133.163C21.8124 131.841 20.7172 130.157 19.938 128.11C19.1587 126.042 18.7691 123.825 18.7691 121.458L18.8007 120.723V119.987C18.8007 117.941 19.264 115.926 20.1907 113.943C21.1384 111.961 22.2652 110.33 23.571 109.051C26.33 106.364 29.605 105.011 33.3959 104.989C39.1245 104.989 42.9365 107.249 44.832 111.769C45.4217 113.197 45.7166 114.508 45.7166 115.702V116.342C45.7166 117.813 45.1163 118.804 43.9158 119.316C42.7154 119.806 39.8827 120.211 35.4178 120.531C30.9529 120.851 28.5308 121.064 28.1517 121.171C26.7196 121.533 26.0035 122.45 26.0035 123.921Z" fill="#2D3030"/>
<path d="M68.5294 114.327C68.5294 112.6 67.9818 111.225 66.8866 110.202C65.7914 109.157 64.3382 108.635 62.527 108.635H61.9267C60.979 108.635 59.9681 108.923 58.894 109.498C57.8199 110.074 56.9353 110.905 56.2403 111.993C54.8503 114.167 54.1553 116.864 54.1553 120.083V121.97C54.1553 125.168 54.8608 127.811 56.2719 129.901C57.704 131.99 59.4416 133.035 61.4845 133.035H62.4006C64.1908 133.035 65.6545 132.416 66.7918 131.18C67.9291 129.943 68.4978 128.366 68.4978 126.447L68.5609 125.775V125.104L68.6241 123.441C68.6241 122.418 68.6241 121.394 68.6241 120.371L68.6557 119.348V118.356L68.6241 118.005V116.31L68.5925 115.99V115.318C68.5504 114.892 68.5294 114.562 68.5294 114.327ZM68.6873 105.277C68.8769 104.808 68.9716 103.401 68.9716 101.056C68.9716 98.7109 68.7926 96.9947 68.4346 95.9074C68.0765 94.7988 67.4447 93.8927 66.5391 93.1892C65.6545 92.4644 65.2122 91.9207 65.2122 91.5583C65.2122 91.1959 65.4545 90.8761 65.9389 90.5989C67.2446 89.8314 69.3718 89.4477 72.3203 89.4477H73.0785C74.5528 89.4477 75.3952 90.2472 75.6058 91.8461C75.669 92.3364 75.7006 98.4337 75.7006 110.138C75.7006 121.821 75.7849 128.238 75.9533 129.389C76.1218 130.519 76.522 131.404 77.1538 132.043C77.2802 132.171 77.6803 132.502 78.3543 133.035C79.0493 133.546 79.3968 134.005 79.3968 134.41C79.3968 134.793 79.1019 135.145 78.5122 135.465C77.3118 136.126 75.3531 136.456 72.6362 136.456C71.6885 136.456 70.9303 136.169 70.3616 135.593C69.2454 134.463 68.6347 133.898 68.5294 133.898C68.4451 133.898 67.9712 134.143 67.1077 134.634C66.2442 135.124 65.2017 135.625 63.9802 136.137C62.7797 136.627 61.2844 136.872 59.4942 136.872C57.704 136.872 56.0508 136.478 54.5344 135.689C51.7333 134.239 49.7641 131.841 48.6268 128.494C47.9528 126.49 47.6158 124.294 47.6158 121.906C47.6158 117.088 48.9743 113.165 51.6911 110.138C54.4291 107.111 58.199 105.597 63.0009 105.597L67.1393 105.981C67.9818 105.981 68.4978 105.746 68.6873 105.277Z" fill="#2D3030"/>
<path d="M101.199 115.446V114.455C101.199 112.877 100.641 111.46 99.5243 110.202C98.4081 108.923 97.0391 108.283 95.4174 108.283H94.8172C94.5223 108.326 94.3223 108.347 94.217 108.347C92.7427 108.347 91.3421 109.2 90.0153 110.905C88.7095 112.611 88.0566 114.434 88.0566 116.374V116.789C88.0566 117.472 88.4568 117.813 89.2571 117.813C89.573 117.877 89.7415 117.909 89.7626 117.909L90.4892 117.941H90.6787L90.8999 117.909L96.997 117.557L98.1343 117.429C100.177 117.429 101.199 116.768 101.199 115.446ZM88.0566 123.921C88.0566 126.351 88.9623 128.387 90.7735 130.029C92.5847 131.67 94.8804 132.491 97.6604 132.491C98.7767 132.491 99.7876 132.331 100.693 132.011C101.62 131.67 102.62 131.265 103.694 130.796C104.79 130.327 105.474 130.093 105.748 130.093C106.59 130.093 107.011 130.551 107.011 131.468C107.011 132.704 105.453 134.026 102.336 135.433C100.314 136.35 98.1448 136.808 95.8281 136.808H95.1331C91.1737 136.808 87.8882 135.593 85.2766 133.163C83.8655 131.841 82.7703 130.157 81.9911 128.11C81.2118 126.042 80.8222 123.825 80.8222 121.458L80.8538 120.723V119.987C80.8538 117.941 81.3171 115.926 82.2438 113.943C83.1916 111.961 84.3183 110.33 85.6241 109.051C88.3831 106.364 91.6581 105.011 95.449 104.989C101.178 104.989 104.99 107.249 106.885 111.769C107.475 113.197 107.77 114.508 107.77 115.702V116.342C107.77 117.813 107.169 118.804 105.969 119.316C104.768 119.806 101.936 120.211 97.4709 120.531C93.006 120.851 90.5839 121.064 90.2048 121.171C88.7727 121.533 88.0566 122.45 88.0566 123.921Z" fill="#2D3030"/>
<path d="M125.465 134.985C125.465 135.817 123.559 136.233 119.747 136.233H116.398L115.071 136.169L113.081 136.137C110.848 136.137 109.732 135.732 109.732 134.921C109.732 134.346 110.227 133.738 111.217 133.099C112.228 132.438 112.902 131.596 113.239 130.572C113.597 129.528 113.776 126.468 113.776 121.394C113.776 116.32 113.607 113.24 113.27 112.153C112.954 111.065 112.449 110.287 111.754 109.818C110.511 108.987 109.89 108.379 109.89 107.995C109.89 107.612 110.111 107.27 110.553 106.972C111.859 106.077 114.071 105.629 117.188 105.629H117.788C118.988 105.629 119.841 106.247 120.347 107.484C120.852 108.699 121.263 109.306 121.579 109.306C121.895 109.306 122.432 109.008 123.19 108.411C123.969 107.814 124.896 107.217 125.97 106.62C127.065 106.023 128.276 105.725 129.603 105.725C130.93 105.725 131.941 106.077 132.636 106.78C133.352 107.462 133.71 108.347 133.71 109.434C133.689 110.543 133.405 111.374 132.857 111.929C132.309 112.483 131.72 112.76 131.088 112.76C130.456 112.76 129.624 112.504 128.592 111.993C127.56 111.46 126.697 111.193 126.002 111.193C125.307 111.193 124.548 111.492 123.727 112.089C122.906 112.664 122.2 113.709 121.61 115.223C121.042 116.715 120.758 119.284 120.758 122.929C120.758 126.554 121.01 128.899 121.516 129.965C122.021 131.009 122.8 131.969 123.853 132.843C124.928 133.717 125.465 134.431 125.465 134.985Z" fill="#2D3030"/>
<path d="M150.362 121.426H149.825C147.066 121.426 144.76 122.055 142.907 123.313C141.075 124.55 140.158 126.095 140.158 127.95V128.59C140.158 129.677 140.485 130.658 141.138 131.532C141.812 132.384 142.675 132.811 143.728 132.811L144.107 132.875H145.055C147.245 132.875 149.036 131.969 150.426 130.157C151.036 129.368 151.342 127.748 151.342 125.296C151.342 125.104 151.342 124.912 151.342 124.72L151.373 123.953V123.185C151.373 122.013 151.036 121.426 150.362 121.426ZM135.009 111.097C135.009 109.52 136.241 108.113 138.705 106.876C141.19 105.618 143.76 104.989 146.414 104.989C146.498 104.989 146.582 104.989 146.666 104.989C149.194 104.989 151.215 105.298 152.732 105.917C155.807 107.153 157.565 109.775 158.008 113.783C158.05 114.189 158.071 116.875 158.071 121.842C158.071 126.788 158.197 129.688 158.45 130.54C158.724 131.393 159.44 132.022 160.598 132.427C161.777 132.832 162.367 133.216 162.367 133.578C162.367 134.346 161.988 134.932 161.23 135.337C159.714 136.147 158.218 136.552 156.744 136.552C155.291 136.552 154.206 136.211 153.49 135.529C152.205 134.314 151.521 133.706 151.437 133.706C151.352 133.706 150.162 134.25 147.867 135.337C145.571 136.403 143.56 136.936 141.833 136.936C139.242 136.936 137.21 136.211 135.736 134.761C134.261 133.312 133.524 131.553 133.524 129.485V128.686C133.524 126.468 134.472 124.518 136.367 122.833C138.263 121.149 141.675 119.838 146.603 118.9C148.393 118.559 149.52 118.239 149.983 117.941C150.91 117.344 151.373 116.129 151.373 114.295C151.373 112.462 150.889 111.055 149.92 110.074C148.951 109.093 147.656 108.603 146.034 108.603C144.413 108.603 142.844 109.562 141.327 111.481C139.832 113.378 138.463 114.327 137.22 114.327C135.746 114.327 135.009 113.25 135.009 111.097Z" fill="#2D3030"/>
<path d="M176.966 132.011L181.768 131.276C182.316 131.276 182.59 131.713 182.59 132.587C182.59 133.44 181.779 134.324 180.157 135.241C178.535 136.158 176.829 136.616 175.039 136.616H174.407C172.996 136.616 171.722 136.243 170.585 135.497C169.447 134.751 168.616 133.834 168.089 132.747C167.183 130.849 166.731 127.257 166.731 121.97C166.731 116.662 166.541 113.346 166.162 112.025C165.804 110.703 165.33 109.797 164.74 109.306C163.645 108.411 163.098 107.921 163.098 107.835C163.098 107.281 163.382 106.812 163.951 106.428C165.404 105.448 166.194 104.893 166.32 104.765C166.467 104.616 167.278 102.868 168.752 99.521C169.49 97.8581 170.322 97.0266 171.248 97.0266C172.196 97.0266 172.828 97.3678 173.144 98.05C173.228 98.2205 173.407 99.1479 173.681 100.832C173.976 102.516 174.386 103.604 174.913 104.094C175.439 104.563 176.608 105.021 178.419 105.469C180.231 105.895 181.136 106.514 181.136 107.324C181.136 108.134 180.136 108.742 178.135 109.147C176.134 109.552 174.923 110.074 174.502 110.714C173.765 111.801 173.396 114.871 173.396 119.923C173.396 124.976 173.628 128.163 174.091 129.485C174.681 131.169 175.639 132.011 176.966 132.011Z" fill="#2D3030"/>
<path d="M203.191 115.446V114.455C203.191 112.877 202.633 111.46 201.517 110.202C200.4 108.923 199.031 108.283 197.41 108.283H196.809C196.515 108.326 196.314 108.347 196.209 108.347C194.735 108.347 193.334 109.2 192.008 110.905C190.702 112.611 190.049 114.434 190.049 116.374V116.789C190.049 117.472 190.449 117.813 191.249 117.813C191.565 117.877 191.734 117.909 191.755 117.909L192.481 117.941H192.671L192.892 117.909L198.989 117.557L200.126 117.429C202.169 117.429 203.191 116.768 203.191 115.446ZM190.049 123.921C190.049 126.351 190.954 128.387 192.766 130.029C194.577 131.67 196.873 132.491 199.653 132.491C200.769 132.491 201.78 132.331 202.685 132.011C203.612 131.67 204.612 131.265 205.687 130.796C206.782 130.327 207.466 130.093 207.74 130.093C208.582 130.093 209.004 130.551 209.004 131.468C209.004 132.704 207.445 134.026 204.328 135.433C202.306 136.35 200.137 136.808 197.82 136.808H197.125C193.166 136.808 189.88 135.593 187.269 133.163C185.858 131.841 184.763 130.157 183.983 128.11C183.204 126.042 182.814 123.825 182.814 121.458L182.846 120.723V119.987C182.846 117.941 183.309 115.926 184.236 113.943C185.184 111.961 186.311 110.33 187.616 109.051C190.375 106.364 193.65 105.011 197.441 104.989C203.17 104.989 206.982 107.249 208.877 111.769C209.467 113.197 209.762 114.508 209.762 115.702V116.342C209.762 117.813 209.162 118.804 207.961 119.316C206.761 119.806 203.928 120.211 199.463 120.531C194.998 120.851 192.576 121.064 192.197 121.171C190.765 121.533 190.049 122.45 190.049 123.921Z" fill="#2D3030"/>
<path d="M216.779 137C215.684 137 214.683 136.606 213.778 135.817C212.872 135.028 212.419 133.994 212.419 132.715V132.427C212.419 131.191 212.883 130.167 213.809 129.357C214.757 128.547 215.715 128.142 216.684 128.142H217.253C217.569 128.206 217.8 128.238 217.948 128.238C218.685 128.238 219.454 128.643 220.254 129.453C221.054 130.263 221.454 131.201 221.454 132.267V132.715C221.454 133.696 221.065 134.644 220.286 135.561C219.527 136.456 218.653 136.904 217.664 136.904L216.937 137H216.779Z" fill="#2D3030"/>
<path d="M228.44 135.977C225.47 135.977 223.986 135.55 223.986 134.698C223.986 133.994 224.375 133.418 225.154 132.971C226.566 132.161 227.387 131.436 227.619 130.796C227.85 130.135 227.966 127.055 227.966 121.554C227.966 116.033 227.798 112.803 227.461 111.865C227.145 110.905 226.555 110.117 225.692 109.498C224.828 108.88 224.396 108.379 224.396 107.995C224.396 107.612 224.681 107.249 225.249 106.908C226.576 106.119 228.682 105.725 231.568 105.725C232.431 105.725 233.105 106.023 233.589 106.62C233.758 106.833 233.99 107.302 234.284 108.027C234.6 108.731 234.811 109.083 234.916 109.083C235.316 109.061 235.938 108.773 236.78 108.219C239.687 106.237 242.319 105.245 244.678 105.245H245.752C247.458 105.245 248.995 105.672 250.364 106.524C251.733 107.377 252.786 108.656 253.524 110.362C254.282 112.067 254.661 115.787 254.661 121.522C254.661 127.236 254.777 130.434 255.008 131.116C255.261 131.777 255.946 132.395 257.062 132.971C258.199 133.546 258.768 134.111 258.768 134.666C258.768 135.625 255.777 136.105 249.796 136.105H248.848C246.953 136.105 246.005 135.646 246.005 134.73C246.005 134.538 246.236 134.079 246.7 133.354C247.163 132.608 247.479 131.787 247.648 130.892C247.816 129.997 247.9 127.055 247.9 122.066C247.9 117.056 247.595 113.837 246.984 112.408C246.142 110.447 244.741 109.466 242.783 109.466C241.35 109.466 239.96 109.807 238.612 110.49C237.286 111.151 236.317 112.099 235.706 113.336C235.116 114.551 234.821 117.482 234.821 122.13C234.821 126.756 234.948 129.56 235.201 130.54C235.453 131.5 235.759 132.278 236.117 132.875L237.286 134.793C237.286 135.625 235.632 136.041 232.326 136.041L230.399 135.977H228.44Z" fill="#2D3030"/>
<path d="M279.432 115.446V114.455C279.432 112.877 278.874 111.46 277.758 110.202C276.642 108.923 275.273 108.283 273.651 108.283H273.051C272.756 108.326 272.556 108.347 272.451 108.347C270.976 108.347 269.576 109.2 268.249 110.905C266.943 112.611 266.29 114.434 266.29 116.374V116.789C266.29 117.472 266.69 117.813 267.491 117.813C267.807 117.877 267.975 117.909 267.996 117.909L268.723 117.941H268.912L269.134 117.909L275.231 117.557L276.368 117.429C278.411 117.429 279.432 116.768 279.432 115.446ZM266.29 123.921C266.29 126.351 267.196 128.387 269.007 130.029C270.818 131.67 273.114 132.491 275.894 132.491C277.01 132.491 278.021 132.331 278.927 132.011C279.854 131.67 280.854 131.265 281.928 130.796C283.023 130.327 283.708 130.093 283.981 130.093C284.824 130.093 285.245 130.551 285.245 131.468C285.245 132.704 283.687 134.026 280.57 135.433C278.548 136.35 276.379 136.808 274.062 136.808H273.367C269.407 136.808 266.122 135.593 263.51 133.163C262.099 131.841 261.004 130.157 260.225 128.11C259.446 126.042 259.056 123.825 259.056 121.458L259.087 120.723V119.987C259.087 117.941 259.551 115.926 260.477 113.943C261.425 111.961 262.552 110.33 263.858 109.051C266.617 106.364 269.892 105.011 273.683 104.989C279.411 104.989 283.223 107.249 285.119 111.769C285.708 113.197 286.003 114.508 286.003 115.702V116.342C286.003 117.813 285.403 118.804 284.203 119.316C283.002 119.806 280.169 120.211 275.705 120.531C271.24 120.851 268.818 121.064 268.439 121.171C267.006 121.533 266.29 122.45 266.29 123.921Z" fill="#2D3030"/>
<path d="M301.487 132.011L306.289 131.276C306.836 131.276 307.11 131.713 307.11 132.587C307.11 133.44 306.299 134.324 304.678 135.241C303.056 136.158 301.35 136.616 299.56 136.616H298.928C297.517 136.616 296.243 136.243 295.105 135.497C293.968 134.751 293.136 133.834 292.61 132.747C291.704 130.849 291.251 127.257 291.251 121.97C291.251 116.662 291.062 113.346 290.683 112.025C290.325 110.703 289.851 109.797 289.261 109.306C288.166 108.411 287.618 107.921 287.618 107.835C287.618 107.281 287.903 106.812 288.471 106.428C289.924 105.448 290.714 104.893 290.841 104.765C290.988 104.616 291.799 102.868 293.273 99.521C294.01 97.8581 294.842 97.0266 295.769 97.0266C296.717 97.0266 297.348 97.3678 297.664 98.05C297.749 98.2205 297.928 99.1479 298.201 100.832C298.496 102.516 298.907 103.604 299.433 104.094C299.96 104.563 301.129 105.021 302.94 105.469C304.751 105.895 305.657 106.514 305.657 107.324C305.657 108.134 304.657 108.742 302.656 109.147C300.655 109.552 299.444 110.074 299.023 110.714C298.286 111.801 297.917 114.871 297.917 119.923C297.917 124.976 298.149 128.163 298.612 129.485C299.202 131.169 300.16 132.011 301.487 132.011Z" fill="#2D3030"/>
<path d="M350.963 105.885C353.006 105.885 354.027 106.46 354.027 107.612C354.027 107.846 353.753 108.4 353.206 109.274C352.679 110.127 352.058 111.31 351.342 112.824C350.626 114.338 349.299 117.93 347.361 123.601C345.424 129.272 344.308 132.395 344.013 132.971C343.044 134.825 341.707 135.753 340.001 135.753C339.221 135.753 338.432 134.975 337.631 133.418C336.831 131.862 335.567 128.867 333.84 124.432C332.134 119.977 331.05 117.749 330.586 117.749C330.523 117.749 329.554 120.083 327.68 124.752C325.806 129.4 324.689 132.065 324.331 132.747C323.32 134.687 322.088 135.657 320.635 135.657C319.203 135.657 317.666 133.184 316.023 128.238L315.233 125.743C312.979 118.41 310.884 113.378 308.946 110.65C307.767 108.987 307.177 107.985 307.177 107.644C307.177 107.302 307.346 106.983 307.683 106.684C308.399 106.045 309.662 105.725 311.474 105.725H312.674C315.222 105.725 316.802 106.279 317.413 107.388C317.644 107.814 317.823 108.763 317.95 110.234C318.097 111.684 318.276 113.059 318.487 114.359C318.719 115.638 319.329 117.855 320.319 121.011C321.309 124.166 322.246 125.743 323.131 125.743C323.826 125.743 324.668 124.358 325.658 121.586C326.648 118.815 327.143 116.267 327.143 113.943C327.143 113.389 327.027 112.654 326.795 111.737C326.585 110.82 326.48 110.191 326.48 109.85C326.48 108.571 327.259 107.58 328.817 106.876C329.575 106.535 330.713 106.364 332.229 106.364C333.767 106.364 335.041 106.972 336.052 108.187C336.578 108.827 336.841 109.744 336.841 110.937L336.778 111.865L336.747 112.888C336.747 113.485 337.21 115.34 338.137 118.452C339.063 121.544 339.727 123.516 340.127 124.368C340.548 125.2 340.98 125.616 341.422 125.616C342.328 125.616 343.37 123.857 344.55 120.339C345.75 116.821 346.351 113.805 346.351 111.289L346.098 108.059C346.098 106.61 347.719 105.885 350.963 105.885Z" fill="#2D3030"/>
<path d="M361.613 119.763V120.947C361.613 124.571 362.308 127.577 363.698 129.965C364.351 131.095 365.183 131.99 366.194 132.651C367.205 133.312 368.226 133.642 369.258 133.642H369.89C371.806 133.642 373.46 132.704 374.85 130.828C376.261 128.931 376.966 126.245 376.966 122.769V120.499C376.966 117.067 376.261 114.157 374.85 111.769C373.46 109.36 371.691 108.155 369.542 108.155H368.563C366.625 108.155 364.983 109.211 363.635 111.321C362.287 113.432 361.613 116.246 361.613 119.763ZM384.58 119.891V121.49C384.58 123.175 384.243 125.019 383.569 127.023C382.158 131.201 379.346 134.122 375.134 135.785C373.302 136.51 371.533 136.872 369.827 136.872H368.784C364.762 136.872 361.402 135.508 358.707 132.779C357.485 131.542 356.495 129.911 355.737 127.886C354.979 125.861 354.6 123.708 354.6 121.426V120.883C354.6 118.815 354.958 116.726 355.674 114.615C357.064 110.5 359.791 107.644 363.856 106.045C365.688 105.32 367.447 104.957 369.132 104.957H370.711C372.586 104.957 374.429 105.384 376.24 106.237C379.673 107.857 382.063 110.436 383.411 113.975C384.19 116.065 384.58 118.037 384.58 119.891Z" fill="#2D3030"/>
<path d="M402.117 134.985C402.117 135.817 400.211 136.233 396.399 136.233H393.05L391.723 136.169L389.733 136.137C387.501 136.137 386.384 135.732 386.384 134.921C386.384 134.346 386.879 133.738 387.869 133.099C388.88 132.438 389.554 131.596 389.891 130.572C390.249 129.528 390.428 126.468 390.428 121.394C390.428 116.32 390.26 113.24 389.923 112.153C389.607 111.065 389.101 110.287 388.406 109.818C387.164 108.987 386.542 108.379 386.542 107.995C386.542 107.612 386.764 107.27 387.206 106.972C388.512 106.077 390.723 105.629 393.84 105.629H394.44C395.641 105.629 396.494 106.247 396.999 107.484C397.505 108.699 397.915 109.306 398.231 109.306C398.547 109.306 399.084 109.008 399.842 108.411C400.622 107.814 401.548 107.217 402.622 106.62C403.718 106.023 404.929 105.725 406.255 105.725C407.582 105.725 408.593 106.077 409.288 106.78C410.004 107.462 410.362 108.347 410.362 109.434C410.341 110.543 410.057 111.374 409.509 111.929C408.962 112.483 408.372 112.76 407.74 112.76C407.108 112.76 406.276 112.504 405.244 111.993C404.212 111.46 403.349 111.193 402.654 111.193C401.959 111.193 401.201 111.492 400.379 112.089C399.558 112.664 398.852 113.709 398.263 115.223C397.694 116.715 397.41 119.284 397.41 122.929C397.41 126.554 397.663 128.899 398.168 129.965C398.673 131.009 399.453 131.969 400.506 132.843C401.58 133.717 402.117 134.431 402.117 134.985Z" fill="#2D3030"/>
<path d="M423.445 122.674C422.16 122.674 421.518 124.55 421.518 128.302C421.518 129.624 421.823 130.913 422.434 132.171L423.287 133.642C423.582 134.175 423.729 134.559 423.729 134.793C423.729 135.561 421.613 135.945 417.379 135.945C413.146 135.945 411.029 135.582 411.029 134.857C411.029 134.666 411.377 134.09 412.072 133.131C412.788 132.15 413.304 131.009 413.62 129.709C413.957 128.387 414.125 125.328 414.125 120.531L414.157 119.316C414.199 118.229 414.22 117.418 414.22 116.885L414.283 114.455L414.315 111.993V107.036C414.315 100.875 414.199 97.2398 413.967 96.1312C413.757 95.0013 413.367 94.1486 412.799 93.573L412.104 93.0293L411.345 92.5496C410.735 92.1019 410.429 91.6862 410.429 91.3025C410.429 90.8974 410.682 90.5456 411.187 90.2472C412.62 89.4157 414.831 89 417.822 89H418.896C420.096 89 420.844 89.8634 421.139 91.5903C421.244 92.2298 421.297 97.0053 421.297 105.917L421.265 109.594C421.265 112.515 421.276 114.071 421.297 114.263C421.528 116.288 422.076 117.301 422.939 117.301C423.803 117.301 425.288 116.15 427.394 113.847C429.5 111.524 430.553 109.871 430.553 108.891L430.458 107.74C430.458 107.015 430.732 106.503 431.28 106.205C431.848 105.906 433.017 105.757 434.786 105.757C438.809 105.757 440.82 106.194 440.82 107.068C440.82 107.089 438.956 108.614 435.229 111.641C431.501 114.668 429.637 116.832 429.637 118.133C429.637 119.433 432.196 123.111 437.314 129.165C438.43 130.487 439.651 131.628 440.978 132.587C442.326 133.546 443 134.186 443 134.506C443 135.55 441.441 136.073 438.324 136.073H436.018C433.996 136.073 432.543 135.486 431.659 134.314L430.395 131.212C429.868 129.933 428.994 128.419 427.773 126.671C425.899 124.006 424.456 122.674 423.445 122.674Z" fill="#2D3030"/>
<path d="M224.761 21.0424C224.48 25.8256 224.339 28.2172 225.654 28.7618C226.968 29.3065 228.56 27.5161 231.744 23.9353L242.932 11.3517C244.253 9.86503 244.914 9.12171 245.777 9.0964C246.639 9.0711 247.343 9.77441 248.749 11.181L249.82 12.2521C251.227 13.6589 251.931 14.3623 251.905 15.225C251.88 16.0878 251.136 16.7486 249.649 18.0703L237.066 29.2544C233.484 32.4378 231.693 34.0296 232.237 35.3444C232.782 36.6592 235.174 36.5186 239.958 36.2373L256.765 35.249C258.751 35.1322 259.744 35.0738 260.372 35.6659C261 36.258 261 37.2527 261 39.2421V40.7576C261 42.7471 261 43.7419 260.372 44.334C259.744 44.9261 258.751 44.8676 256.765 44.7507L239.957 43.7614C235.173 43.4799 232.782 43.3391 232.237 44.6538C231.692 45.9686 233.483 47.5604 237.064 50.7441L249.649 61.9312C251.136 63.2531 251.88 63.9141 251.905 64.7768C251.93 65.6396 251.227 66.3429 249.82 67.7496L248.748 68.8214C247.341 70.2278 246.638 70.931 245.775 70.9056C244.912 70.8802 244.252 70.1368 242.93 68.65L231.744 56.0654C228.561 52.4836 226.969 50.6927 225.654 51.2373C224.339 51.7819 224.48 54.1739 224.761 58.9578L225.751 75.765C225.868 77.751 225.926 78.7441 225.334 79.372C224.742 80 223.747 80 221.758 80H220.242C218.253 80 217.258 80 216.666 79.3721C216.074 78.7442 216.132 77.7512 216.249 75.7652L217.237 58.9576C217.519 54.1737 217.659 51.7818 216.344 51.2372C215.03 50.6927 213.438 52.4837 210.254 56.0656L199.07 68.6493C197.749 70.1364 197.088 70.8799 196.225 70.9053C195.362 70.9307 194.659 70.2272 193.252 68.8204L192.181 67.7494C190.774 66.3428 190.071 65.6395 190.096 64.7768C190.122 63.9142 190.865 63.2533 192.352 61.9316L204.935 50.7438C208.516 47.5602 210.307 45.9684 209.762 44.6537C209.217 43.3391 206.826 43.4798 202.042 43.7614L185.235 44.7507C183.249 44.8676 182.256 44.9261 181.628 44.334C181 43.7419 181 42.7471 181 40.7576V39.2421C181 37.2527 181 36.258 181.628 35.6659C182.256 35.0738 183.249 35.1322 185.235 35.249L202.041 36.2373C206.825 36.5186 209.217 36.6592 209.761 35.3444C210.306 34.0297 208.515 32.4379 204.933 29.2545L192.351 18.0707C190.864 16.7488 190.12 16.0879 190.095 15.2251C190.07 14.3623 190.773 13.6589 192.18 12.2522L193.252 11.1805C194.659 9.7741 195.362 9.07092 196.225 9.09633C197.088 9.12173 197.748 9.86508 199.07 11.3518L210.255 23.9342C213.438 27.5154 215.03 29.3061 216.344 28.7615C217.659 28.2169 217.519 25.8252 217.237 21.0418L216.249 4.2348C216.132 2.24883 216.074 1.25584 216.666 0.627922C217.258 0 218.253 0 220.242 0H221.758C223.747 0 224.742 0 225.334 0.627966C225.926 1.25593 225.868 2.24897 225.751 4.23504L224.761 21.0424Z" fill="#506563"/>
</svg>
